<svg width="132" height="132" viewBox="0 0 132 132" fill="none" xmlns="http://www.w3.org/2000/svg">
<path d="M0.614014 107.979L26.707 24.0209H35.5326L9.43959 107.979H0.614014Z" fill="#E72F73"/>
<path d="M40.828 95.5465H51.6489L54.2582 70.0674H44.2814L45.4326 58.786H55.4093L57.0977 42.286C57.5582 38.1419 59.0931 34.6884 61.7791 32.0023C64.4652 29.3163 68.3024 27.9349 73.2907 27.9349H83.6512L82.5 38.7558H71.3721L69.3 58.7093H81.0419L80.121 69.9907H68.1489L65.9233 92.0163C65.4628 96.1605 63.928 99.5372 61.3187 102.223C58.7093 104.909 54.7954 106.214 49.7303 106.214H39.7535L40.828 95.5465Z" fill="#050505"/>
<path d="M111.356 94.8558C107.672 94.8558 104.372 94.2419 101.456 93.014C98.5397 91.7861 96.1606 90.0977 94.1652 87.7954C92.2466 85.5698 90.7118 82.8837 89.7141 79.6605C88.7164 76.4372 88.1792 72.907 88.1792 68.9163C88.1792 64.9256 88.7164 61.3954 89.7141 58.2489C90.7118 55.1023 92.1699 52.3396 94.1652 50.114C96.0839 47.8884 98.5397 46.1233 101.456 44.8954C104.372 43.6675 107.672 43.1302 111.356 43.1302C116.344 43.1302 120.565 44.2814 123.942 46.507C127.319 48.7326 129.698 51.9558 131.156 56.0233L119.875 60.9349C119.414 59.0163 118.493 57.4814 117.112 56.1C115.73 54.7954 113.812 54.1047 111.356 54.1047C108.516 54.1047 106.368 55.0256 104.909 56.8675C103.451 58.7093 102.761 61.2419 102.761 64.3884V73.5977C102.761 76.7442 103.451 79.2 104.909 81.0419C106.368 82.8837 108.516 83.8047 111.356 83.8047C113.889 83.8047 115.884 83.114 117.342 81.8093C118.8 80.4279 119.875 78.6628 120.565 76.514L131.386 81.1954C129.775 85.8768 127.242 89.3303 123.789 91.5558C120.412 93.7814 116.191 94.8558 111.356 94.8558Z" fill="#050505"/>
</svg>
