<svg width="67" height="67" viewBox="0 0 67 67" fill="none" xmlns="http://www.w3.org/2000/svg">
<circle cx="33.5" cy="33.5" r="33.5" fill="white"/>
<path d="M21.7795 43.94L17.9995 44.15C17.4195 44.15 17.1295 44.03 17.1295 43.79C17.1295 43.57 17.4895 43.39 18.2095 43.25C18.9095 43.13 19.3995 42.91 19.6795 42.59C19.9795 42.25 20.1295 41.72 20.1295 41V28.34C20.1295 27.38 20.0095 26.67 19.7695 26.21C19.5295 25.75 19.0595 25.46 18.3595 25.34C17.6595 25.22 17.3095 25.02 17.3095 24.74C17.3095 24.52 17.5995 24.41 18.1795 24.41L23.3395 24.5L28.4695 24.44H29.6395L30.0895 24.41C30.4295 24.41 30.6095 24.5 30.6295 24.68C30.6695 24.96 30.6995 25.36 30.7195 25.88C30.7595 26.38 30.7795 26.98 30.7795 27.68C30.7795 28.1 30.6895 28.31 30.5095 28.31C30.2695 28.31 30.1195 28.19 30.0595 27.95C29.8195 27.23 29.5195 26.67 29.1595 26.27C28.8195 25.87 28.2195 25.67 27.3595 25.67H23.5495C23.2495 25.67 23.0295 25.75 22.8895 25.91C22.7495 26.07 22.6595 26.24 22.6195 26.42C22.5995 26.6 22.5695 26.89 22.5295 27.29C22.5095 27.49 22.4995 27.82 22.4995 28.28C22.4995 28.72 22.4995 29.29 22.4995 29.99C22.4995 30.67 22.4995 31.25 22.4995 31.73C22.4995 32.19 22.5095 32.53 22.5295 32.75C22.5295 33.21 22.6295 33.44 22.8295 33.44L26.3095 33.35C27.2095 33.35 27.8195 32.96 28.1395 32.18C28.1795 32.1 28.2595 32 28.3795 31.88C28.5195 31.74 28.6295 31.67 28.7095 31.67C28.7695 31.67 28.8495 31.72 28.9495 31.82C29.0095 31.88 29.0395 32.04 29.0395 32.3C29.0395 32.56 29.0295 32.82 29.0095 33.08C28.9895 33.32 28.9795 33.58 28.9795 33.86C28.9795 34.3 29.0095 34.96 29.0695 35.84C29.0695 36.18 28.9795 36.35 28.7995 36.35C28.4995 36.35 28.2695 36.12 28.1095 35.66C27.8495 34.88 27.3795 34.49 26.6995 34.49C26.6995 34.49 26.5695 34.49 26.3095 34.49C26.0695 34.49 25.6995 34.48 25.1995 34.46C24.9795 34.46 24.6995 34.47 24.3595 34.49C24.0395 34.49 23.6695 34.5 23.2495 34.52C22.7695 34.54 22.5295 34.79 22.5295 35.27C22.5295 37.75 22.5595 39.65 22.6195 40.97C22.6595 41.65 22.8195 42.18 23.0995 42.56C23.3995 42.92 23.8895 43.16 24.5695 43.28C25.2495 43.4 25.5895 43.57 25.5895 43.79C25.5895 44.03 25.2995 44.15 24.7195 44.15C24.4395 44.15 24.1595 44.14 23.8795 44.12C23.5995 44.1 23.3295 44.07 23.0695 44.03C22.5695 43.97 22.1395 43.94 21.7795 43.94ZM47.4211 43.94C46.2811 44.28 44.6911 44.45 42.6511 44.45C41.3111 44.45 40.0511 44.19 38.8711 43.67C37.6911 43.13 36.6611 42.39 35.7811 41.45C34.9011 40.51 34.2111 39.42 33.7111 38.18C33.2111 36.94 32.9611 35.62 32.9611 34.22C32.9611 32.82 33.2511 31.51 33.8311 30.29C34.4111 29.07 35.2011 28 36.2011 27.08C37.2211 26.14 38.3811 25.41 39.6811 24.89C41.0011 24.37 42.4011 24.11 43.8811 24.11C45.2811 24.11 46.3411 24.23 47.0611 24.47C47.7811 24.71 48.5411 24.89 49.3411 25.01C49.5011 25.01 49.6211 25.21 49.7011 25.61C49.7811 26.01 49.8411 26.48 49.8811 27.02C49.9411 27.56 49.9711 28.04 49.9711 28.46V28.97C49.9711 29.13 49.9711 29.27 49.9711 29.39C49.9711 29.51 49.9611 29.6 49.9411 29.66C49.8811 29.82 49.7811 29.89 49.6411 29.87C49.2411 29.83 48.9811 29.46 48.8611 28.76C48.7411 27.86 48.3911 27.13 47.8111 26.57C46.7911 25.55 45.2711 25.04 43.2511 25.04C42.2311 25.04 41.2811 25.27 40.4011 25.73C39.5211 26.19 38.7411 26.82 38.0611 27.62C37.4011 28.4 36.8811 29.31 36.5011 30.35C36.1411 31.37 35.9611 32.45 35.9611 33.59C35.9611 35.25 36.2611 36.83 36.8611 38.33C37.4611 39.83 38.3611 41.07 39.5611 42.05C40.7211 43.03 42.0611 43.52 43.5811 43.52C46.0811 43.52 47.9411 42.31 49.1611 39.89C49.2611 39.73 49.4011 39.6 49.5811 39.5C49.7611 39.42 49.8711 39.36 49.9111 39.32C49.9311 39.3 49.9511 39.29 49.9711 39.29C50.1111 39.29 50.1811 39.48 50.1811 39.86C50.0011 41.36 49.6611 42.48 49.1611 43.22C49.0611 43.38 48.4811 43.62 47.4211 43.94Z" fill="black"/>
</svg>
