<?xml version="1.0" encoding="UTF-8" standalone="no"?>
<svg
   xmlns:dc="http://purl.org/dc/elements/1.1/"
   xmlns:cc="http://creativecommons.org/ns#"
   xmlns:rdf="http://www.w3.org/1999/02/22-rdf-syntax-ns#"
   xmlns:svg="http://www.w3.org/2000/svg"
   xmlns="http://www.w3.org/2000/svg"
   xmlns:sodipodi="http://sodipodi.sourceforge.net/DTD/sodipodi-0.dtd"
   xmlns:inkscape="http://www.inkscape.org/namespaces/inkscape"
   version="1.1"
   id="Capa_1"
   x="0px"
   y="0px"
   viewBox="0 0 200 200"
   xml:space="preserve"
   sodipodi:docname="fc-logo-negro.svg"
   inkscape:version="1.0.2 (e86c8708, 2021-01-15)"
   width="200"
   height="200"
   inkscape:export-filename="/Users/franciscocobas/bitmap.png"
   inkscape:export-xdpi="248.58455"
   inkscape:export-ydpi="248.58455"><metadata
   id="metadata27"><rdf:RDF><cc:Work
       rdf:about=""><dc:format>image/svg+xml</dc:format><dc:type
         rdf:resource="http://purl.org/dc/dcmitype/StillImage" /><dc:title></dc:title></cc:Work></rdf:RDF></metadata><defs
   id="defs25" /><sodipodi:namedview
   pagecolor="#ffffff"
   bordercolor="#666666"
   borderopacity="1"
   objecttolerance="10"
   gridtolerance="10"
   guidetolerance="10"
   inkscape:pageopacity="0"
   inkscape:pageshadow="2"
   inkscape:window-width="1440"
   inkscape:window-height="776"
   id="namedview23"
   showgrid="false"
   inkscape:zoom="1.4707734"
   inkscape:cx="102.12155"
   inkscape:cy="57.907684"
   inkscape:window-x="1"
   inkscape:window-y="25"
   inkscape:window-maximized="0"
   inkscape:current-layer="Capa_1" />
<style
   type="text/css"
   id="style10">
	.st0{fill:none;stroke:#000000;stroke-miterlimit:10;}
	.st1{fill:#E72F73;}
	.st2{fill:#FFFFFF;}
	.st3{fill:none;}
</style>
<circle
   style="fill:#000000;stroke:#000000;stroke-width:2.33882"
   id="path29"
   cx="100"
   cy="100"
   r="98.830589" /><rect
   class="st3"
   width="172"
   height="172"
   id="rect12"
   x="-108.7863"
   y="-87.708954" />
<g
   id="g20"
   transform="matrix(0.93896714,0,0,0.93896714,19.248826,19.248826)">
	<path
   class="st1"
   d="m 0.8,140.7 34,-109.4 h 11.5 l -34,109.4 z"
   id="path14" />
	<path
   class="st2"
   d="m 53.2,124.5 h 14.1 l 3.4,-33.2 h -13 l 1.5,-14.7 h 13 L 74.4,55.1 C 75,49.7 77,45.2 80.5,41.7 84,38.2 89,36.4 95.5,36.4 H 109 l -1.5,14.1 H 93 l -2.7,26 h 15.3 l -1.2,14.7 H 88.8 l -2.9,28.7 c -0.6,5.4 -2.6,9.8 -6,13.3 -3.4,3.5 -8.5,5.2 -15.1,5.2 h -13 z"
   id="path16" />
	<path
   class="st2"
   d="m 145.1,123.6 c -4.8,0 -9.1,-0.8 -12.9,-2.4 -3.8,-1.6 -6.9,-3.8 -9.5,-6.8 -2.5,-2.9 -4.5,-6.4 -5.8,-10.6 -1.3,-4.2 -2,-8.8 -2,-14 0,-5.2 0.7,-9.8 2,-13.9 1.3,-4.1 3.2,-7.7 5.8,-10.6 2.5,-2.9 5.7,-5.2 9.5,-6.8 3.8,-1.6 8.1,-2.3 12.9,-2.3 6.5,0 12,1.5 16.4,4.4 4.4,2.9 7.5,7.1 9.4,12.4 l -14.7,6.4 c -0.6,-2.5 -1.8,-4.5 -3.6,-6.3 -1.8,-1.7 -4.3,-2.6 -7.5,-2.6 -3.7,0 -6.5,1.2 -8.4,3.6 -1.9,2.4 -2.8,5.7 -2.8,9.8 v 12 c 0,4.1 0.9,7.3 2.8,9.7 1.9,2.4 4.7,3.6 8.4,3.6 3.3,0 5.9,-0.9 7.8,-2.6 1.9,-1.8 3.3,-4.1 4.2,-6.9 l 14.1,6.1 c -2.1,6.1 -5.4,10.6 -9.9,13.5 -4.4,2.9 -9.9,4.3 -16.2,4.3 z"
   id="path18" />
</g>
</svg>
