<svg width="368" height="78" viewBox="0 0 368 78" fill="none" xmlns="http://www.w3.org/2000/svg">
<path d="M102.168 41.8101C102.163 44.6301 101.04 47.333 99.0459 49.3271C97.0518 51.3212 94.3489 52.444 91.5289 52.4497H83.442V31.1705H91.5289C92.9261 31.1702 94.3098 31.4453 95.6007 31.9799C96.8917 32.5145 98.0647 33.2982 99.0527 34.2862C100.041 35.2742 100.824 36.4473 101.359 37.7382C101.894 39.0292 102.169 40.4128 102.168 41.8101ZM97.257 41.8101C97.2595 40.2795 96.6598 38.8094 95.5875 37.7173C95.0485 37.1836 94.4096 36.7614 93.7073 36.475C93.005 36.1885 92.2531 36.0433 91.4946 36.0477H88.5496V47.5383H91.5289C92.2821 47.5418 93.0285 47.3961 93.7251 47.1095C94.4217 46.8229 95.0546 46.4011 95.5873 45.8685C96.1199 45.3359 96.5417 44.703 96.8283 44.0064C97.1149 43.3098 97.2606 42.5633 97.257 41.8101Z" fill="#F9F9F9"/>
<path d="M117.738 47.7361H127.492V52.3183H112.625V31.0445H127.487V35.6267H117.732V39.3921H126.008V43.9743H117.732L117.738 47.7361Z" fill="#F9F9F9"/>
<path d="M148.44 52.3183V52.286L148.408 52.3183V52.286L136.982 31.0445H142.876L148.44 41.6589L153.972 31.0445H159.866L148.44 52.2895V52.3183Z" fill="#F9F9F9"/>
<path d="M174.94 31.0445V52.3219H169.835V31.0445H174.94Z" fill="#F9F9F9"/>
<path d="M202.968 49.6288C201.623 50.7684 200.023 51.5669 198.304 51.9561C196.584 52.3454 194.797 52.3141 193.092 51.8648C191.387 51.4156 189.816 50.5616 188.512 49.3755C187.208 48.1894 186.21 46.7062 185.601 45.0518C184.993 43.3973 184.793 41.6205 185.018 39.8721C185.243 38.1237 185.886 36.4554 186.894 35.0088C187.901 33.5623 189.243 32.3802 190.804 31.5629C192.366 30.7455 194.102 30.3172 195.865 30.3141C198.469 30.3111 200.989 31.2403 202.968 32.9335L199.695 36.1718C198.592 35.34 197.247 34.8915 195.865 34.8945C195.031 34.8911 194.204 35.0546 193.434 35.3753C192.664 35.696 191.965 36.1675 191.38 36.7619C190.785 37.3538 190.314 38.0579 189.994 38.8334C189.674 39.6089 189.511 40.4403 189.514 41.2793C189.52 42.962 190.19 44.5743 191.38 45.7642C192.57 46.954 194.182 47.6248 195.865 47.63C197.247 47.633 198.592 47.1845 199.695 46.3527L202.968 49.6288Z" fill="#F9F9F9"/>
<path d="M218.186 47.7361H227.94V52.3183H213.078V31.0445H227.94V35.6267H218.186V39.3921H226.462V43.9743H218.186V47.7361Z" fill="#F9F9F9"/>
<path d="M264.01 31.0445V52.3219H258.902V40.3996L252.584 44.4259L246.467 40.4319V52.3057H241.36V31.0445L252.652 38.345L264.01 31.0445Z" fill="#F9F9F9"/>
<path d="M289.274 49.3409H281.254L279.716 52.3202H273.829L285.287 31.0427L296.713 52.3202H290.819L289.274 49.3409ZM287.212 45.347L285.282 41.6158L283.317 45.347H287.212Z" fill="#F9F9F9"/>
<path d="M323.906 39.9768V52.3183H319.649V50.6147C317.975 51.8082 315.999 52.5074 313.947 52.6325C311.894 52.7576 309.848 52.3037 308.041 51.3223C306.235 50.341 304.74 48.8719 303.727 47.0823C302.715 45.2926 302.225 43.2546 302.315 41.2004C302.405 39.1462 303.07 37.1585 304.234 35.4639C305.398 33.7692 307.015 32.4357 308.901 31.6155C310.786 30.7952 312.864 30.5211 314.898 30.8244C316.931 31.1278 318.839 31.9963 320.403 33.3311L317.131 36.5694C316.012 35.7422 314.659 35.2946 313.268 35.2921C312.433 35.2853 311.606 35.447 310.835 35.7676C310.065 36.0882 309.367 36.561 308.783 37.1577C307.89 38.0484 307.281 39.1836 307.033 40.4201C306.784 41.6566 306.908 42.9391 307.388 44.1054C307.867 45.2718 308.682 46.2698 309.729 46.9737C310.775 47.6775 312.007 48.0555 313.268 48.06C314.96 48.0519 316.581 47.3824 317.785 46.1944C318.38 45.624 318.878 44.9604 319.259 44.2298H314.347V39.975H323.908L323.906 39.9768ZM319.649 44.264V44.2316H319.617L319.649 44.264Z" fill="#F9F9F9"/>
<path d="M338.994 31.0445V52.3219H333.889V31.0445H338.994Z" fill="#F9F9F9"/>
<path d="M367.002 49.6287C365.657 50.7684 364.057 51.5669 362.338 51.9561C360.619 52.3454 358.831 52.3141 357.126 51.8648C355.422 51.4156 353.851 50.5616 352.547 49.3755C351.243 48.1894 350.244 46.7062 349.636 45.0518C349.027 43.3973 348.827 41.6204 349.052 39.8721C349.277 38.1237 349.92 36.4554 350.928 35.0088C351.935 33.5623 353.277 32.3802 354.839 31.5629C356.401 30.7455 358.137 30.3172 359.899 30.3141C362.505 30.3128 365.024 31.2439 367.002 32.9389L363.728 36.1772C362.625 35.3457 361.281 34.8972 359.899 34.8999C359.065 34.8965 358.239 35.06 357.468 35.3807C356.698 35.7014 356 36.1728 355.414 36.7673C354.82 37.3592 354.349 38.0633 354.028 38.8388C353.708 39.6143 353.545 40.4457 353.549 41.2847C353.554 42.9674 354.225 44.5797 355.415 45.7696C356.605 46.9594 358.217 47.6302 359.899 47.6354C361.281 47.6381 362.625 47.1896 363.728 46.3581L367.002 49.6287Z" fill="#F9F9F9"/>
<path opacity="0.4" d="M53.3726 62.197L43.395 17.2656L27.8962 4.31238L37.8648 55.8014" fill="url(#paint0_linear)"/>
<path d="M15.4827 55.8373V46.556L22.0456 39.993L28.0995 40.0039L33.7539 24.5104H15.632L0 40.1424V62.2492L14.6227 76.9313L20.4805 60.882L15.4827 55.8373Z" fill="#4D4C4D"/>
<path d="M37.8719 0V55.8571L31.327 62.4021H22.0241L16.3732 77.8848H37.7406L53.3726 62.2528V12.9586L37.8719 0Z" fill="#888888"/>
<defs>
<linearGradient id="paint0_linear" x1="40.6344" y1="4.31241" x2="40.6344" y2="62.1971" gradientUnits="userSpaceOnUse">
<stop stop-opacity="0"/>
<stop offset="1"/>
</linearGradient>
</defs>
</svg>
