<svg width="367" height="79" viewBox="0 0 367 79" fill="none" xmlns="http://www.w3.org/2000/svg">
<path d="M118.541 72.5437C115.299 76.1525 111.385 77.9875 106.797 77.9875C101.108 77.9875 96.5822 75.7855 93.1568 71.565C89.6703 67.2833 88.3858 61.7783 89.181 54.9888C89.9762 48.3828 92.6675 42.8778 97.0715 38.535C101.475 34.131 106.675 31.9901 112.547 31.9901C117.256 31.9901 120.804 33.6417 122.945 37.0058L123.373 33.397H137.992L132.732 76.703H118.113L118.541 72.5437ZM111.017 64.3473C113.464 64.3473 115.544 63.4298 117.44 61.656C119.275 59.821 120.376 57.5578 120.682 54.9276C121.049 52.2975 120.498 50.0343 119.091 48.1993C117.685 46.4255 115.788 45.508 113.342 45.508C110.895 45.508 108.815 46.4255 106.919 48.1993C105.084 50.0343 103.922 52.2975 103.616 54.9276C103.31 57.5578 103.861 59.6987 105.268 61.5337C106.675 63.3075 108.571 64.225 111.017 64.225V64.2862V64.3473ZM158.85 45.8138C158.728 46.7925 159.4 47.5876 160.807 48.2605C162.275 48.8721 163.988 49.4226 166.067 49.9731C168.086 50.5236 170.166 51.1353 172.245 51.9917C174.325 52.7868 175.976 54.2548 177.261 56.2733C178.545 58.2307 178.974 60.7996 178.545 63.858C178.056 67.7726 176.038 71.1368 172.368 73.8281C168.698 76.5195 163.804 77.8651 157.749 77.8651C149.491 77.8651 143.375 75.4185 139.399 70.464L148.452 61.2278C151.449 64.6532 155.302 66.3658 159.951 66.3658C162.581 66.3658 164.049 65.5707 164.232 63.9192C164.355 63.124 163.865 62.39 162.887 61.7171C161.847 61.1055 160.562 60.6161 158.972 60.2492C157.382 59.8822 155.73 59.3928 153.957 58.6588C152.122 57.986 150.531 57.1296 149.002 56.2121C147.473 55.3558 146.25 53.949 145.393 52.1751C144.537 50.3401 144.231 48.1993 144.537 45.7526C144.965 42.0215 146.922 38.7185 150.47 36.0271C153.956 33.3358 158.483 31.929 163.988 31.929C172.674 31.929 178.545 34.498 181.604 39.5748L172.612 48.077C170.349 45.0187 167.169 43.4283 163.132 43.4283C160.562 43.4283 159.217 44.2235 159.033 45.7526C159.033 45.8138 158.85 45.8138 158.85 45.8138ZM185.947 33.2746H194.204L195.672 21.5306H210.23L208.823 33.2746H219.833L218.243 46.0585H207.355L205.703 59.3928C205.275 62.6958 206.376 64.3473 208.823 64.3473C210.78 64.3473 212.371 63.6745 213.594 62.2676L218.61 73.0942C214.817 76.4583 210.23 78.1098 204.603 78.1098C199.587 78.1098 195.917 76.5807 193.409 73.4C190.901 70.2193 189.984 65.693 190.718 59.821L192.369 46.1808H184.234L185.947 33.2746Z" fill="#3E3E3E"/>
<path d="M255.738 49.4227C253.597 46.976 250.722 45.8138 247.236 45.8138C244.422 45.8138 242.036 46.7313 240.079 48.5052C238.122 50.279 237.021 52.5422 236.715 55.2947C236.409 57.9248 237.021 60.0657 238.55 61.9007C240.079 63.7357 242.22 64.6532 244.911 64.6532C248.459 64.6532 251.823 63.3075 254.882 60.6773L260.815 71.3815C258.857 73.4612 256.166 75.1127 252.924 76.3972C249.744 77.6817 246.379 78.2933 242.832 78.2933C236.287 78.2933 231.088 76.0302 227.112 71.5038C223.136 66.9775 221.484 61.5337 222.341 55.2335C223.136 48.811 226.072 43.3672 231.149 38.8408C236.226 34.3145 241.914 32.0513 248.275 32.0513C255.799 32.0513 261.487 34.4368 265.341 39.0855L255.86 49.3615L255.738 49.4227ZM294.273 72.5437C291.031 76.1525 287.116 77.9875 282.529 77.9875C276.84 77.9875 272.314 75.7855 268.828 71.565C265.402 67.2833 264.057 61.7783 264.913 54.9888C265.708 48.3828 268.399 42.8778 272.803 38.535C277.207 34.131 282.406 31.9902 288.278 31.9902C292.988 31.9902 296.536 33.6417 298.738 37.0058L299.166 33.397H313.785L308.463 76.7642H293.845C293.845 76.703 294.273 72.5437 294.273 72.5437ZM286.749 64.3473C289.196 64.3473 291.276 63.4298 293.172 61.656C295.007 59.821 296.108 57.5578 296.414 54.9277C296.781 52.2975 296.23 50.0343 294.762 48.1993C293.355 46.4255 291.459 45.508 289.013 45.508C286.566 45.508 284.486 46.4255 282.59 48.1993C280.755 50.0343 279.593 52.2975 279.287 54.9277C278.92 57.5578 279.532 59.6987 280.938 61.5337C282.345 63.3075 284.242 64.225 286.688 64.225L286.749 64.3473ZM326.079 14.3742H340.698L333.053 76.703H318.434L326.079 14.3742ZM352.381 0H367L357.58 76.703H342.962L352.381 0Z" fill="#888888"/>
<path d="M89.4257 33.03L91.1995 18.6558H29.9717C27.7085 18.6558 25.8735 20.6743 25.8735 22.9375C25.8735 25.0172 27.4638 27.158 29.4212 27.158H36.9447C39.3302 27.158 41.2263 28.993 41.2263 31.3785C41.2263 33.764 39.269 35.599 36.9447 35.599H22.6317C20.6132 35.599 18.9617 37.3117 18.9617 39.3913C18.9617 41.6545 20.7967 43.2448 23.0598 43.2448H25.69C25.7512 43.2448 25.7512 43.2448 25.8123 43.2448H51.9917C54.316 43.2448 56.2733 45.0798 56.2733 47.4653C56.2733 49.7897 54.316 51.6858 52.0528 51.6858H25.8735H25.8123H24.5278C22.2647 51.6858 20.4297 53.7043 20.4297 55.9675C20.4297 58.2307 22.2647 60.188 24.4667 60.188H45.7527C48.077 60.188 49.9732 62.1453 49.9732 64.4085C49.9732 66.7328 48.0158 68.629 45.7527 68.629L19.5733 68.5678C19.5122 68.5678 19.451 68.5678 19.3898 68.5678H16.2092C13.946 68.5678 12.111 70.5252 12.111 72.7883C12.111 75.0515 13.946 77.0088 16.2092 77.0088H61.2278L63.7968 55.9063H83.0032L84.7158 41.5322H65.5095L66.6717 33.03H89.4257ZM17.7995 26.8522H14.3742C12.111 26.8522 10.276 25.0171 10.276 22.754C10.276 20.4908 12.111 18.6558 14.3742 18.6558H17.7995C20.0627 18.6558 21.8977 20.4908 21.8977 22.754C21.8977 25.0171 20.0627 26.8522 17.7995 26.8522ZM12.2333 60.0656H4.09817C1.835 60.0656 0 58.2307 0 55.9675C0 53.7043 1.835 51.8693 4.09817 51.8693H12.2333C14.4965 51.8693 16.3315 53.7043 16.3315 55.9675C16.3315 58.2918 14.4965 60.0656 12.2333 60.0656Z" fill="#3E3E3E"/>
</svg>
